<?xml version="1.0" encoding="UTF-8"?>
<!DOCTYPE svg PUBLIC "-//W3C//DTD SVG 1.1//EN" "http://www.w3.org/Graphics/SVG/1.1/DTD/svg11.dtd">
<svg version="1.1" xmlns="http://www.w3.org/2000/svg" xmlns:xlink="http://www.w3.org/1999/xlink" x="0" y="0" width="700" height="500" viewBox="0, 0, 700, 500">
  <defs>
    <linearGradient id="Gradient_1" gradientUnits="userSpaceOnUse" x1="339.187" y1="20.513" x2="339.187" y2="159.852">
      <stop offset="0" stop-color="#E5E5E5"/>
      <stop offset="0.161" stop-color="#E1E1E1"/>
      <stop offset="1" stop-color="#CECCCA"/>
    </linearGradient>
    <linearGradient id="Gradient_2" gradientUnits="userSpaceOnUse" x1="339.187" y1="177.507" x2="339.187" y2="316.846">
      <stop offset="0" stop-color="#E5E5E5"/>
      <stop offset="0.161" stop-color="#E1E1E1"/>
      <stop offset="1" stop-color="#CECCCA"/>
    </linearGradient>
    <linearGradient id="Gradient_3" gradientUnits="userSpaceOnUse" x1="339.187" y1="334.501" x2="339.187" y2="473.84">
      <stop offset="0" stop-color="#E5E5E5"/>
      <stop offset="0.161" stop-color="#E1E1E1"/>
      <stop offset="1" stop-color="#CECCCA"/>
    </linearGradient>
    <filter id="Shadow_1">
      <feGaussianBlur in="SourceAlpha" stdDeviation="2.5"/>
      <feOffset dx="0" dy="2" result="offsetblur"/>
      <feFlood flood-color="#000000"/>
      <feComposite in2="offsetblur" operator="in"/>
    </filter>
    <radialGradient id="Gradient_4" gradientUnits="userSpaceOnUse" cx="111.829" cy="105.548" r="43.952">
      <stop offset="0" stop-color="#EAEAEA"/>
      <stop offset="1" stop-color="#ACDBFF"/>
    </radialGradient>
    <filter id="Shadow_2">
      <feGaussianBlur in="SourceAlpha" stdDeviation="2.5"/>
      <feOffset dx="0" dy="2" result="offsetblur"/>
      <feFlood flood-color="#000000"/>
      <feComposite in2="offsetblur" operator="in"/>
    </filter>
    <radialGradient id="Gradient_5" gradientUnits="userSpaceOnUse" cx="111.829" cy="416.383" r="43.952">
      <stop offset="0" stop-color="#EAEAEA"/>
      <stop offset="1" stop-color="#ACDBFF"/>
    </radialGradient>
    <filter id="Shadow_3">
      <feGaussianBlur in="SourceAlpha" stdDeviation="2.5"/>
      <feOffset dx="0" dy="2" result="offsetblur"/>
      <feFlood flood-color="#000000"/>
      <feComposite in2="offsetblur" operator="in"/>
    </filter>
    <radialGradient id="Gradient_6" gradientUnits="userSpaceOnUse" cx="111.829" cy="260.383" r="43.952">
      <stop offset="0" stop-color="#EAEAEA"/>
      <stop offset="1" stop-color="#ACDBFF"/>
    </radialGradient>
    <filter id="Shadow_4">
      <feGaussianBlur in="SourceAlpha" stdDeviation="2.5"/>
      <feOffset dx="0" dy="2" result="offsetblur"/>
      <feFlood flood-color="#000000"/>
      <feComposite in2="offsetblur" operator="in"/>
    </filter>
    <filter id="Shadow_5">
      <feGaussianBlur in="SourceAlpha" stdDeviation="2.5"/>
      <feOffset dx="0" dy="2" result="offsetblur"/>
      <feFlood flood-color="#000000"/>
      <feComposite in2="offsetblur" operator="in"/>
    </filter>
    <radialGradient id="Gradient_7" gradientUnits="userSpaceOnUse" cx="440.439" cy="419.278" r="62.564">
      <stop offset="0" stop-color="#EAEAEA"/>
      <stop offset="1" stop-color="#ACFFD3"/>
    </radialGradient>
    <filter id="Shadow_6">
      <feGaussianBlur in="SourceAlpha" stdDeviation="2.5"/>
      <feOffset dx="0" dy="2" result="offsetblur"/>
      <feFlood flood-color="#000000"/>
      <feComposite in2="offsetblur" operator="in"/>
    </filter>
    <radialGradient id="Gradient_8" gradientUnits="userSpaceOnUse" cx="591.439" cy="419.278" r="62.564">
      <stop offset="0" stop-color="#EAEAEA"/>
      <stop offset="1" stop-color="#ACFFD3"/>
    </radialGradient>
    <filter id="Shadow_7">
      <feGaussianBlur in="SourceAlpha" stdDeviation="2.5"/>
      <feOffset dx="0" dy="2" result="offsetblur"/>
      <feFlood flood-color="#000000"/>
      <feComposite in2="offsetblur" operator="in"/>
    </filter>
    <radialGradient id="Gradient_9" gradientUnits="userSpaceOnUse" cx="286.875" cy="263.278" r="62.564">
      <stop offset="0" stop-color="#EAEAEA"/>
      <stop offset="1" stop-color="#ACFFD3"/>
    </radialGradient>
    <filter id="Shadow_8">
      <feGaussianBlur in="SourceAlpha" stdDeviation="2.5"/>
      <feOffset dx="0" dy="2" result="offsetblur"/>
      <feFlood flood-color="#000000"/>
      <feComposite in2="offsetblur" operator="in"/>
    </filter>
    <radialGradient id="Gradient_10" gradientUnits="userSpaceOnUse" cx="440.439" cy="263.278" r="62.564">
      <stop offset="0" stop-color="#EAEAEA"/>
      <stop offset="1" stop-color="#ACFFD3"/>
    </radialGradient>
    <filter id="Shadow_9">
      <feGaussianBlur in="SourceAlpha" stdDeviation="2.5"/>
      <feOffset dx="0" dy="2" result="offsetblur"/>
      <feFlood flood-color="#000000"/>
      <feComposite in2="offsetblur" operator="in"/>
    </filter>
    <radialGradient id="Gradient_11" gradientUnits="userSpaceOnUse" cx="286.875" cy="419.278" r="62.564">
      <stop offset="0" stop-color="#EAEAEA"/>
      <stop offset="1" stop-color="#FF8555"/>
    </radialGradient>
  </defs>
  <g id="Background">
    <path d="M27,20.506 L673,20.506 L673,165.506 L27,165.506 L27,20.506 z" fill="url(#Gradient_1)"/>
    <path d="M27,177.5 L673,177.5 L673,322.5 L27,322.5 L27,177.5 z" fill="url(#Gradient_2)"/>
    <path d="M27,334.494 L673,334.494 L673,479.494 L27,479.494 L27,334.494 z" fill="url(#Gradient_3)"/>
  </g>
  <g id="Main">
    <g>
      <g>
        <path d="M140.566,70.127 C151.636,70.127 160.785,76.281 160.785,84.217 L160.785,123.037 C160.785,130.974 151.636,137.127 140.566,137.127 L82.847,137.127 C71.777,137.127 62.627,130.974 62.627,123.037 L62.627,84.217 C62.627,76.281 71.777,70.127 82.847,70.127 L140.566,70.127 z" filter="url(#Shadow_1)" fill="rgba(0,0,0,0.65)"/>
        <path d="M82.847,71.627 L140.566,71.627 C150.904,71.627 159.285,77.264 159.285,84.218 L159.285,123.037 C159.285,129.991 150.904,135.627 140.566,135.627 L82.847,135.627 C72.508,135.627 64.127,129.991 64.127,123.037 L64.127,84.218 C64.127,77.264 72.508,71.627 82.847,71.627 z" fill="url(#Gradient_4)"/>
        <path d="M82.847,71.627 L140.566,71.627 C150.904,71.627 159.285,77.264 159.285,84.218 L159.285,123.037 C159.285,129.991 150.904,135.627 140.566,135.627 L82.847,135.627 C72.508,135.627 64.127,129.991 64.127,123.037 L64.127,84.218 C64.127,77.264 72.508,71.627 82.847,71.627 z" fill-opacity="0" stroke="#535353" stroke-width="3"/>
      </g>
      <text fill="#000000" transform="matrix(1, 0, -0, 1, 111.206, 103.127)">
        <tspan x="-17.76" y="4.548" font-family="HelveticaNeue-Bold" font-size="12">Image</tspan>
      </text>
    </g>
    <g>
      <g>
        <path d="M140.566,380.963 C151.636,380.963 160.785,387.116 160.785,395.053 L160.785,433.873 C160.785,441.809 151.636,447.963 140.566,447.963 L82.847,447.963 C71.777,447.963 62.627,441.809 62.627,433.873 L62.627,395.053 C62.627,387.116 71.777,380.963 82.847,380.963 L140.566,380.963 z" filter="url(#Shadow_2)" fill="rgba(0,0,0,0.65)"/>
        <path d="M82.847,382.463 L140.566,382.463 C150.904,382.463 159.285,388.1 159.285,395.053 L159.285,433.873 C159.285,440.826 150.904,446.463 140.566,446.463 L82.847,446.463 C72.508,446.463 64.127,440.826 64.127,433.873 L64.127,395.053 C64.127,388.1 72.508,382.463 82.847,382.463 z" fill="url(#Gradient_5)"/>
        <path d="M82.847,382.463 L140.566,382.463 C150.904,382.463 159.285,388.1 159.285,395.053 L159.285,433.873 C159.285,440.826 150.904,446.463 140.566,446.463 L82.847,446.463 C72.508,446.463 64.127,440.826 64.127,433.873 L64.127,395.053 C64.127,388.1 72.508,382.463 82.847,382.463 z" fill-opacity="0" stroke="#535353" stroke-width="3"/>
      </g>
      <text fill="#000000" transform="matrix(1, 0, -0, 1, 111.206, 413.963)">
        <tspan x="-17.76" y="4.548" font-family="HelveticaNeue-Bold" font-size="12">Image</tspan>
      </text>
    </g>
    <g>
      <g>
        <path d="M140.566,224.963 C151.636,224.963 160.785,231.116 160.785,239.053 L160.785,277.873 C160.785,285.809 151.636,291.963 140.566,291.963 L82.847,291.963 C71.777,291.963 62.627,285.809 62.627,277.873 L62.627,239.053 C62.627,231.116 71.777,224.963 82.847,224.963 L140.566,224.963 z" filter="url(#Shadow_3)" fill="rgba(0,0,0,0.65)"/>
        <path d="M82.847,226.463 L140.566,226.463 C150.904,226.463 159.285,232.1 159.285,239.053 L159.285,277.873 C159.285,284.826 150.904,290.463 140.566,290.463 L82.847,290.463 C72.508,290.463 64.127,284.826 64.127,277.873 L64.127,239.053 C64.127,232.1 72.508,226.463 82.847,226.463 z" fill="url(#Gradient_6)"/>
        <path d="M82.847,226.463 L140.566,226.463 C150.904,226.463 159.285,232.1 159.285,239.053 L159.285,277.873 C159.285,284.826 150.904,290.463 140.566,290.463 L82.847,290.463 C72.508,290.463 64.127,284.826 64.127,277.873 L64.127,239.053 C64.127,232.1 72.508,226.463 82.847,226.463 z" fill-opacity="0" stroke="#535353" stroke-width="3"/>
      </g>
      <text fill="#000000" transform="matrix(1, 0, -0, 1, 111.206, 257.963)">
        <tspan x="-17.76" y="4.548" font-family="HelveticaNeue-Bold" font-size="12">Image</tspan>
      </text>
    </g>
    <g>
      <path d="M286.735,58.659 C287.137,58.659 287.518,58.663 287.902,58.672 L287.866,60.187 C289.863,60.223 291.88,60.312 293.841,60.713 L294.074,59.224 C297.156,59.706 300.167,60.491 303.071,61.564 L302.548,62.977 C307.04,64.876 305.247,63.967 308.034,65.481 L308.76,64.11 C311.505,65.565 314.099,67.288 316.504,69.253 L315.522,70.455 C318.303,72.75 316.816,71.423 319.912,74.519 L321.026,73.469 C323.155,75.731 325.057,78.197 326.701,80.832 L325.409,81.638 C326.579,83.291 327.464,85.127 328.25,86.986 L329.654,86.352 C330.931,89.177 331.926,92.127 332.622,95.165 L331.116,95.509 C331.957,99.622 331.672,97.668 332.046,101.361 L333.596,101.214 C333.737,102.695 333.808,104.188 333.808,105.689 C333.808,107.32 333.727,108.924 333.566,110.516 L332.015,110.359 C331.658,113.88 331.937,111.896 331.038,116.292 L332.53,116.647 C331.808,119.678 330.788,122.619 329.486,125.434 L328.098,124.792 C327.35,126.665 326.328,128.42 325.201,130.089 L326.496,130.912 C324.831,133.533 322.909,135.984 320.762,138.228 L319.649,137.163 C316.73,140.082 318.208,138.748 315.243,141.195 L316.213,142.402 C313.792,144.348 311.185,146.05 308.429,147.483 L307.716,146.111 C305.987,147.086 304.188,147.946 302.284,148.539 L302.798,149.955 C299.887,151.011 296.87,151.777 293.784,152.239 L293.561,150.749 C288.585,151.254 290.595,151.163 287.545,151.241 L287.571,152.754 C287.301,152.758 287.031,152.761 286.76,152.761 L286.757,152.761 L284.416,152.703 C279.02,152.172 281.315,152.513 277.508,151.851 L277.812,150.325 C274.227,149.592 276.166,150.073 272.022,148.785 L271.524,150.24 C268.58,149.233 265.749,147.936 263.068,146.37 L263.84,145.048 C262.063,144.127 260.417,142.965 258.875,141.693 L257.936,142.903 C255.482,140.999 253.221,138.857 251.187,136.51 L252.35,135.502 C249.668,132.251 250.87,133.873 248.705,130.667 L247.41,131.518 C245.705,128.923 244.259,126.165 243.097,123.281 L244.533,122.703 C243.474,120.233 243.877,121.072 242.638,117.083 L241.185,117.456 C240.416,114.465 239.942,111.391 239.775,108.267 L241.279,108.186 C241.186,107.276 241.267,108.098 241.206,105.71 C241.276,102.962 241.187,104.143 241.388,102.161 L239.847,102.042 C240.088,98.926 240.634,95.864 241.474,92.891 L242.956,93.309 C244.227,89.221 243.527,91.096 244.982,87.656 L243.557,87.039 C244.791,84.186 246.306,81.465 248.077,78.914 L249.35,79.797 C251.019,77.318 250.067,78.684 253.044,75.077 L251.934,74.068 C254.023,71.771 256.334,69.683 258.832,67.838 L259.731,69.054 C263.681,66.386 261.933,67.407 264.868,65.813 L264.12,64.452 C266.84,62.957 269.703,61.734 272.673,60.803 L273.138,62.288 C276.512,61.239 274.609,61.749 278.878,60.876 L278.614,59.361 C281.278,58.896 283.991,58.66 286.735,58.659 z" filter="url(#Shadow_4)" fill="rgba(0,0,0,0.65)"/>
      <path d="M286.757,151.261 C261.6,151.261 241.206,130.867 241.206,105.71 C241.206,80.552 261.6,60.159 286.757,60.159 C311.914,60.159 332.308,80.552 332.308,105.71 C332.308,130.867 311.914,151.261 286.757,151.261 z" fill="#F3F3F3"/>
      <path d="M286.757,151.261 C261.6,151.261 241.206,130.867 241.206,105.71 C241.206,80.552 261.6,60.159 286.757,60.159 C311.914,60.159 332.308,80.552 332.308,105.71 C332.308,130.867 311.914,151.261 286.757,151.261 z" fill-opacity="0" stroke="#535353" stroke-width="3" stroke-dasharray="9,6" stroke-miterlimit="0"/>
    </g>
    <g>
      <g>
        <path d="M440.322,369.494 C466.307,369.494 487.373,390.56 487.373,416.545 C487.373,442.531 466.307,463.596 440.322,463.596 C414.336,463.596 393.271,442.531 393.271,416.545 C393.271,390.56 414.336,369.494 440.322,369.494 z" filter="url(#Shadow_5)" fill="rgba(0,0,0,0.65)"/>
        <path d="M440.322,462.096 C415.164,462.096 394.771,441.702 394.771,416.545 C394.771,391.388 415.164,370.994 440.322,370.994 C465.479,370.994 485.873,391.388 485.873,416.545 C485.873,441.702 465.479,462.096 440.322,462.096 z" fill="url(#Gradient_7)"/>
        <path d="M440.322,462.096 C415.164,462.096 394.771,441.702 394.771,416.545 C394.771,391.388 415.164,370.994 440.322,370.994 C465.479,370.994 485.873,391.388 485.873,416.545 C485.873,441.702 465.479,462.096 440.322,462.096 z" fill-opacity="0" stroke="#535353" stroke-width="3" stroke-miterlimit="0"/>
      </g>
      <text fill="#000000" transform="matrix(1, 0, -0, 1, 439.822, 416.045)">
        <tspan x="-17.778" y="4.548" font-family="HelveticaNeue-Bold" font-size="12">Active</tspan>
      </text>
    </g>
    <g>
      <g>
        <path d="M591.322,369.494 C617.307,369.494 638.373,390.56 638.373,416.545 C638.373,442.531 617.307,463.596 591.322,463.596 C565.336,463.596 544.271,442.531 544.271,416.545 C544.271,390.56 565.336,369.494 591.322,369.494 z" filter="url(#Shadow_6)" fill="rgba(0,0,0,0.65)"/>
        <path d="M591.322,462.096 C566.164,462.096 545.771,441.702 545.771,416.545 C545.771,391.388 566.164,370.994 591.322,370.994 C616.479,370.994 636.873,391.388 636.873,416.545 C636.873,441.702 616.479,462.096 591.322,462.096 z" fill="url(#Gradient_8)"/>
        <path d="M591.322,462.096 C566.164,462.096 545.771,441.702 545.771,416.545 C545.771,391.388 566.164,370.994 591.322,370.994 C616.479,370.994 636.873,391.388 636.873,416.545 C636.873,441.702 616.479,462.096 591.322,462.096 z" fill-opacity="0" stroke="#535353" stroke-width="3" stroke-miterlimit="0"/>
      </g>
      <text fill="#000000" transform="matrix(1, 0, -0, 1, 590.822, 416.045)">
        <tspan x="-17.778" y="4.548" font-family="HelveticaNeue-Bold" font-size="12">Active</tspan>
      </text>
    </g>
    <g>
      <g>
        <path d="M286.757,213.494 C312.743,213.494 333.808,234.56 333.808,260.545 C333.808,286.531 312.743,307.596 286.757,307.596 C260.772,307.596 239.706,286.531 239.706,260.545 C239.706,234.56 260.772,213.494 286.757,213.494 z" filter="url(#Shadow_7)" fill="rgba(0,0,0,0.65)"/>
        <path d="M286.757,306.096 C261.6,306.096 241.206,285.702 241.206,260.545 C241.206,235.388 261.6,214.994 286.757,214.994 C311.914,214.994 332.308,235.388 332.308,260.545 C332.308,285.702 311.914,306.096 286.757,306.096 z" fill="url(#Gradient_9)"/>
        <path d="M286.757,306.096 C261.6,306.096 241.206,285.702 241.206,260.545 C241.206,235.388 261.6,214.994 286.757,214.994 C311.914,214.994 332.308,235.388 332.308,260.545 C332.308,285.702 311.914,306.096 286.757,306.096 z" fill-opacity="0" stroke="#535353" stroke-width="3" stroke-miterlimit="0"/>
      </g>
      <text fill="#000000" transform="matrix(1, 0, -0, 1, 286.257, 260.045)">
        <tspan x="-17.778" y="4.548" font-family="HelveticaNeue-Bold" font-size="12">Active</tspan>
      </text>
    </g>
    <g>
      <g>
        <path d="M440.322,213.494 C466.307,213.494 487.373,234.56 487.373,260.545 C487.373,286.531 466.307,307.596 440.322,307.596 C414.336,307.596 393.271,286.531 393.271,260.545 C393.271,234.56 414.336,213.494 440.322,213.494 z" filter="url(#Shadow_8)" fill="rgba(0,0,0,0.65)"/>
        <path d="M440.322,306.096 C415.164,306.096 394.771,285.702 394.771,260.545 C394.771,235.388 415.164,214.994 440.322,214.994 C465.479,214.994 485.873,235.388 485.873,260.545 C485.873,285.702 465.479,306.096 440.322,306.096 z" fill="url(#Gradient_10)"/>
        <path d="M440.322,306.096 C415.164,306.096 394.771,285.702 394.771,260.545 C394.771,235.388 415.164,214.994 440.322,214.994 C465.479,214.994 485.873,235.388 485.873,260.545 C485.873,285.702 465.479,306.096 440.322,306.096 z" fill-opacity="0" stroke="#535353" stroke-width="3" stroke-miterlimit="0"/>
      </g>
      <text fill="#000000" transform="matrix(1, 0, -0, 1, 439.822, 260.045)">
        <tspan x="-17.778" y="4.548" font-family="HelveticaNeue-Bold" font-size="12">Active</tspan>
      </text>
    </g>
    <g>
      <g>
        <path d="M286.757,369.494 C312.743,369.494 333.808,390.56 333.808,416.545 C333.808,442.531 312.743,463.596 286.757,463.596 C260.772,463.596 239.706,442.531 239.706,416.545 C239.706,390.56 260.772,369.494 286.757,369.494 z" filter="url(#Shadow_9)" fill="rgba(0,0,0,0.65)"/>
        <path d="M286.757,462.096 C261.6,462.096 241.206,441.702 241.206,416.545 C241.206,391.388 261.6,370.994 286.757,370.994 C311.914,370.994 332.308,391.388 332.308,416.545 C332.308,441.702 311.914,462.096 286.757,462.096 z" fill="url(#Gradient_11)"/>
        <path d="M286.757,462.096 C261.6,462.096 241.206,441.702 241.206,416.545 C241.206,391.388 261.6,370.994 286.757,370.994 C311.914,370.994 332.308,391.388 332.308,416.545 C332.308,441.702 311.914,462.096 286.757,462.096 z" fill-opacity="0" stroke="#535353" stroke-width="3" stroke-miterlimit="0"/>
      </g>
      <text fill="#000000" transform="matrix(1, 0, -0, 1, 286.257, 416.045)">
        <tspan x="-38.898" y="4.548" font-family="HelveticaNeue-Bold" font-size="12">Unconfigured</tspan>
      </text>
    </g>
    <g>
      <path d="M171.706,106.491 L202.106,106.512" fill-opacity="0" stroke="#535353" stroke-width="3"/>
      <path d="M202.103,110.712 L213.306,106.519 L202.109,102.312 M202.106,106.512 L213.306,106.519" fill-opacity="0" stroke="#535353" stroke-width="3" stroke-opacity="1"/>
    </g>
    <g>
      <path d="M171.706,260.53 L202.106,260.551" fill-opacity="0" stroke="#535353" stroke-width="3"/>
      <path d="M202.103,264.751 L213.306,260.559 L202.109,256.351 M202.106,260.551 L213.306,260.559" fill-opacity="0" stroke="#535353" stroke-width="3" stroke-opacity="1"/>
    </g>
    <g>
      <path d="M171.706,416.53 L202.106,416.551" fill-opacity="0" stroke="#535353" stroke-width="3"/>
      <path d="M202.103,420.751 L213.306,416.559 L202.109,412.351 M202.106,416.551 L213.306,416.559" fill-opacity="0" stroke="#535353" stroke-width="3" stroke-opacity="1"/>
    </g>
    <g>
      <g>
        <path d="M341.308,416.545 L373.106,416.545" fill-opacity="0" stroke="#535353" stroke-width="3"/>
        <path d="M373.106,420.745 L384.306,416.545 L373.106,412.345 M373.106,416.545 L384.306,416.545" fill-opacity="0" stroke="#535353" stroke-width="3" stroke-opacity="1"/>
      </g>
      <text fill="#000000" transform="matrix(1, 0, -0, 1, 359.584, 404.313)">
        <tspan x="-14.664" y="4.548" font-family="HelveticaNeue-Bold" font-size="12">CCIP</tspan>
      </text>
    </g>
    <g>
      <g>
        <path d="M341.308,260.545 L373.106,260.545" fill-opacity="0" stroke="#535353" stroke-width="3"/>
        <path d="M373.106,264.745 L384.306,260.545 L373.106,256.345 M373.106,260.545 L384.306,260.545" fill-opacity="0" stroke="#535353" stroke-width="3" stroke-opacity="1"/>
      </g>
      <text fill="#000000" transform="matrix(1, 0, -0, 1, 359.584, 248.313)">
        <tspan x="-14.664" y="4.548" font-family="HelveticaNeue-Bold" font-size="12">CCIP</tspan>
      </text>
    </g>
    <g>
      <g>
        <path d="M493.308,416.302 L525.106,416.302" fill-opacity="0" stroke="#535353" stroke-width="3"/>
        <path d="M525.106,420.502 L536.306,416.302 L525.106,412.102 M525.106,416.302 L536.306,416.302" fill-opacity="0" stroke="#535353" stroke-width="3" stroke-opacity="1"/>
      </g>
      <text fill="#000000" transform="matrix(1, 0, -0, 1, 511.584, 404.07)">
        <tspan x="-14.664" y="4.548" font-family="HelveticaNeue-Bold" font-size="12">CCIP</tspan>
      </text>
    </g>
    <text transform="matrix(1, 0, 0, 1, 321.32, 40.491)">
      <tspan x="-278.32" y="2" font-family="Courier-Bold" font-size="14" fill="#000000">Stateflow 1:  Transient Container for CCIP static request only</tspan>
    </text>
    <text transform="matrix(1, 0, 0, 1, 296.32, 196.991)">
      <tspan x="-253.32" y="3.5" font-family="Courier-Bold" font-size="14" fill="#000000">Stateflow 2:  Immediate launch using optional CCIP-request</tspan>
    </text>
    <text transform="matrix(1, 0, 0, 1, 326.32, 354.991)">
      <tspan x="-283.32" y="3.5" font-family="Courier-Bold" font-size="14" fill="#000000">Stateflow 3:  Post-launch configuration triggered by CCIP-request</tspan>
    </text>
  </g>
</svg>
